<?xml version="1.0" encoding="UTF-8"?>
<svg width="910px" height="910px" viewBox="0 0 910 910" version="1.1" xmlns="http://www.w3.org/2000/svg" xmlns:xlink="http://www.w3.org/1999/xlink">
    <!-- Generator: Sketch 41 (35326) - http://www.bohemiancoding.com/sketch -->
    <title>Slice 1</title>
    <desc>Created with Sketch.</desc>
    <defs>
        <polygon id="path-1" points="0 698.697166 699.705387 698.697166 699.705387 0 0 0"></polygon>
    </defs>
    <g id="Page-1" stroke="none" stroke-width="1" fill="none" fill-rule="evenodd">
        <circle id="Oval" stroke="#3972B3" stroke-width="10" fill="#4990E2" cx="455" cy="455" r="450"></circle>
        <g id="1f61c" transform="translate(105.000000, 105.000000)">
            <g id="svg2">
                <g id="g10" transform="translate(350.000000, 350.210134) scale(1, -1) translate(-350.000000, -350.210134) translate(0.000000, 0.714457)">
                    <g id="g12">
                        <g id="g14-Clipped">
                            <mask id="mask-2" fill="white">
                                <use xlink:href="#path-1"></use>
                            </mask>
                            <g id="path18"></g>
                            <g id="g14" mask="url(#mask-2)">
                                <g transform="translate(36.826599, -1.239793)">
                                    <g id="g20" transform="translate(0.000000, 38.013329)">
                                        <path d="M626.052189,312.575048 C626.052189,139.941688 485.908565,0 313.026094,0 C140.162037,0 0,139.941688 0,312.575048 C0,485.190022 140.162037,625.150096 313.026094,625.150096 C485.908565,625.150096 626.052189,485.190022 626.052189,312.575048" id="path22" fill="#FFCC4D"></path>
                                    </g>
                                    <g id="g24" transform="translate(100.481376, 359.033156)">
                                        <path d="M165.719697,13.3435399 C164.614899,15.8257535 138.118161,73.9647124 83.6516204,73.9647124 C29.2034933,73.9647124 2.68834175,15.8257535 1.58354377,13.3435399 C-0.110479798,9.53747899 0.994318182,5.08788124 4.23505892,2.47696025 C7.49421296,-0.152347502 12.0975379,-0.225894573 15.4671717,2.21954551 C15.7065446,2.38502642 38.7047559,18.8044098 83.6516204,18.8044098 C128.322285,18.8044098 151.302083,2.60566763 151.817656,2.23793228 C153.438026,1.02440562 155.389836,0.417642291 157.304819,0.417642291 C159.330282,0.417642291 161.374158,1.09795269 163.049769,2.42179995 C166.327336,5.03272094 167.413721,9.51909222 165.719697,13.3435399" id="path26" fill="#664500"></path>
                                    </g>
                                    <g id="g28" transform="translate(313.026094, 294.979700)">
                                        <path d="M239.372896,119.629563 C239.372896,53.6210675 185.790194,0.115573967 119.686448,0.115573967 C53.582702,0.115573967 -5.74175948e-14,53.6210675 -5.74175948e-14,119.629563 C-5.74175948e-14,185.638058 53.582702,239.143552 119.686448,239.143552 C185.790194,239.143552 239.372896,185.638058 239.372896,119.629563" id="path30" fill="#F5F8FA"></path>
                                    </g>
                                    <g id="g32" transform="translate(386.679293, 368.526770)">
                                        <path d="M92.0664983,46.0824928 C92.0664983,20.6903668 71.462016,0.115573967 46.0332492,0.115573967 C20.6044823,0.115573967 0,20.6903668 0,46.0824928 C0,71.4746188 20.6044823,92.0494116 46.0332492,92.0494116 C71.462016,92.0494116 92.0664983,71.4746188 92.0664983,46.0824928" id="path34" fill="#292F33"></path>
                                    </g>
                                    <g id="g36" transform="translate(110.479798, 92.840831)">
                                        <path d="M0,165.480908 C0,92.5957613 84.6275253,0 202.546296,0 C320.465067,0 405.092593,91.9338377 405.092593,165.480908 C405.092593,165.480908 214.827967,114.806976 0,165.480908" id="path38" fill="#664500"></path>
                                    </g>
                                    <g id="g40" transform="translate(202.546296, 0.848418)">
                                        <path d="M0,222.889649 L0,111.042942 C0,55.8826399 36.8265993,0.722337296 110.479798,0.722337296 C184.132997,0.722337296 220.959596,55.8826399 220.959596,111.042942 L220.959596,222.135792 C105.103114,198.380088 0,222.889649 0,222.889649" id="path42" fill="#E75A70"></path>
                                    </g>
                                </g>
                            </g>
                        </g>
                    </g>
                </g>
            </g>
        </g>
    </g>
</svg>