<?xml version="1.0" ?><!DOCTYPE svg  PUBLIC '-//W3C//DTD SVG 1.0//EN'  'http://www.w3.org/TR/2001/REC-SVG-20010904/DTD/svg10.dtd'><svg height="110px" style="enable-background:new 0 0 110 110;" version="1.0" viewBox="0 0 110 110" width="110px" xml:space="preserve" xmlns="http://www.w3.org/2000/svg" xmlns:xlink="http://www.w3.org/1999/xlink"><g id="R-Multicolor"><circle cx="55" cy="55" r="55" style="fill:#E04F5F;"/><g><path d="M75,23L49.792,48.208C47.668,47.44,45.388,47,43,47c-11.046,0-20,8.954-20,20s8.954,20,20,20    s20-8.954,20-20c0-2.388-0.44-4.668-1.208-6.792L63,59v-8h8v-8h8v-8h8V23H75z M47.595,76.204c-0.2,0.955-0.869,1.744-1.777,2.1    c-3.631,1.422-7.918,0.666-10.853-2.269c-2.935-2.934-3.691-7.223-2.268-10.855c0.356-0.909,1.146-1.577,2.102-1.776    c0.956-0.199,1.946,0.098,2.636,0.788l9.375,9.375C47.5,74.257,47.795,75.249,47.595,76.204z" style="fill:#FACB1B;"/><path d="M87,23H75L49.792,48.208C47.668,47.44,45.388,47,43,47c-11.046,0-20,8.954-20,20    c0,5.701,2.397,10.832,6.224,14.475l5.602-5.602c-2.809-2.929-3.526-7.124-2.128-10.693c0.356-0.909,1.146-1.577,2.102-1.776    c0.956-0.199,1.946,0.098,2.636,0.788l4.536,4.536L87,23.698V23z" style="fill:#FBE158;"/><path d="M55,49c-0.552-0.552-0.552-1.448,0-2l22-22h4L57,49C56.448,49.552,55.552,49.552,55,49z" style="fill:#F3B607;"/></g></g></svg>