<?xml version="1.0" encoding="UTF-8" standalone="no"?>
<!DOCTYPE svg PUBLIC "-//W3C//DTD SVG 1.1//EN" "http://www.w3.org/Graphics/SVG/1.1/DTD/svg11.dtd">
<svg width="100%" height="100%" viewBox="0 0 500 500" version="1.1" xmlns="http://www.w3.org/2000/svg" xmlns:xlink="http://www.w3.org/1999/xlink" xml:space="preserve" style="fill-rule:evenodd;clip-rule:evenodd;stroke-linecap:round;stroke-linejoin:round;stroke-miterlimit:1.5;">
    <g transform="matrix(0.845894,0,0,0.845894,38.4401,39.2676)">
        <circle cx="249.44" cy="248.32" r="248.88" style="fill:rgb(88,142,202);"/>
    </g>
    <g id="timer">
        <path id="shadow" d="M268.189,459.021L150.735,341.568L130.564,211.288C153.319,170.578 203.066,136.534 249.064,125.705L227.314,97.872C227.314,97.872 265.602,84.962 273.75,88.125L334.687,149.063L341.948,151.508L459.089,268.65C449.88,369.624 369.242,450.086 268.189,459.021Z" style="fill-opacity:0.11;"/>
        <circle cx="249.375" cy="250" r="11.25" style="fill:none;stroke:white;stroke-width:5.21px;"/>
        <g transform="matrix(1,0,0,1,7.12895,2.80682)">
            <path d="M298.75,191.25L251.116,238.884" style="fill:none;stroke:white;stroke-width:5.21px;"/>
        </g>
        <g transform="matrix(0.458545,0,0,0.458545,104.87,170.543)">
            <path d="M298.75,191.25L251.116,238.884" style="fill:none;stroke:white;stroke-width:11.36px;"/>
        </g>
        <g transform="matrix(1,0,0,1.65,2,-75.9688)">
            <rect x="238.25" y="104.375" width="19.5" height="12.5" style="fill:white;"/>
        </g>
        <g transform="matrix(2.40659,0,0,0.748571,-346.835,10.6714)">
            <rect x="238.25" y="104.375" width="19.5" height="12.5" style="fill:white;"/>
        </g>
        <circle cx="249.375" cy="250" r="121.875" style="fill:none;stroke:white;stroke-width:26.08px;"/>
    </g>
</svg>
