<?xml version="1.0" ?><!DOCTYPE svg  PUBLIC '-//W3C//DTD SVG 1.1//EN'  'http://www.w3.org/Graphics/SVG/1.1/DTD/svg11.dtd'><svg enable-background="new 0 0 128 128" version="1.1" viewBox="0 0 128 128" xml:space="preserve" xmlns="http://www.w3.org/2000/svg" xmlns:xlink="http://www.w3.org/1999/xlink"><g id="Layer_1"><rect fill="#F4F5F5" height="1520" opacity="0" width="727.938" x="-539.984" y="-731"/></g><g id="Layer_2"><g><circle cx="64" cy="64" fill="#F54F33" r="64"/><g><defs><circle cx="64" cy="64" id="SVGID_31_" r="64"/></defs><clipPath id="SVGID_2_"><use overflow="visible" xlink:href="#SVGID_31_"/></clipPath><polygon clip-path="url(#SVGID_2_)" fill="#DD2C24" points="20.161,96.119 52.036,128 128,128 128,52.536 108.115,32.622    "/></g><path d="M104.944,96.947H23.056c-2.209,0-4-1.791-4-4V35.053c0-2.209,1.791-4,4-4h81.888c2.209,0,4,1.791,4,4    v57.894C108.944,95.156,107.153,96.947,104.944,96.947z" fill="#FFFFFF"/><g><path d="M108.944,42.054v-7.001c0-2.209-1.791-4-4-4H23.056c-2.209,0-4,1.791-4,4v7.001H108.944z" fill="#E1E3E9"/></g><circle cx="25" cy="36.553" fill="#F24B45" r="3"/><circle cx="34" cy="36.553" fill="#FFB202" r="3"/><circle cx="43.001" cy="36.553" fill="#4CBB41" r="3"/><g><defs><path d="M104.944,96.947H23.056c-2.209,0-4-1.791-4-4V35.053c0-2.209,1.791-4,4-4h81.888c2.209,0,4,1.791,4,4      v57.894C108.944,95.156,107.153,96.947,104.944,96.947z" id="SVGID_33_"/></defs><clipPath id="SVGID_4_"><use overflow="visible" xlink:href="#SVGID_33_"/></clipPath><polygon clip-path="url(#SVGID_4_)" fill="#E1E3E9" opacity="0.8" points="30.866,70.855 57.438,97.5 110,97.5 110,79.563      97.134,66.663 84.469,63.719 71.795,51.056 64.376,67.188 53.475,56.3 31.937,68.83    "/></g><g><path d="M30.866,66.804L53.475,56.3v4.993l-17.099,7.49v0.094l17.099,7.489v4.993L30.866,70.855V66.804z" fill="#53899F"/><path d="M56.958,85.206l10.08-34.15h4.758l-10.081,34.15H56.958z" fill="#53899F"/><path d="M97.134,70.997L74.525,81.359v-4.993L92,68.877v-0.094l-17.476-7.49V56.3l22.609,10.363V70.997z" fill="#53899F"/></g></g></g></svg>