<?xml version="1.0" standalone="yes"?>

<svg version="1.1" viewBox="0.0 0.0 500.0 500.0" fill="none" stroke="none" stroke-linecap="square" stroke-miterlimit="10" xmlns="http://www.w3.org/2000/svg" xmlns:xlink="http://www.w3.org/1999/xlink"><clipPath id="p.0"><path d="m0 0l500.0 0l0 500.0l-500.0 0l0 -500.0z" clip-rule="nonzero"></path></clipPath><g clip-path="url(#p.0)"><path fill="#000000" fill-opacity="0.0" d="m0 0l500.0 0l0 500.0l-500.0 0z" fill-rule="nonzero"></path><path fill="#cc0000" d="m5.149606 250.0l0 0c0 -135.22714 109.62326 -244.85039 244.85039 -244.85039l0 0c64.938354 0 127.21701 25.796663 173.13538 71.71502c45.918365 45.918358 71.71503 108.19702 71.71503 173.13538l0 0c0 135.22714 -109.62326 244.8504 -244.8504 244.8504l0 0c-135.22714 0 -244.85039 -109.62326 -244.85039 -244.8504z" fill-rule="nonzero"></path><path stroke="#a61c00" stroke-width="8.0" stroke-linejoin="round" stroke-linecap="butt" d="m5.149606 250.0l0 0c0 -135.22714 109.62326 -244.85039 244.85039 -244.85039l0 0c64.938354 0 127.21701 25.796663 173.13538 71.71502c45.918365 45.918358 71.71503 108.19702 71.71503 173.13538l0 0c0 135.22714 -109.62326 244.8504 -244.8504 244.8504l0 0c-135.22714 0 -244.85039 -109.62326 -244.85039 -244.8504z" fill-rule="nonzero"></path><path fill="#ffffff" d="m144.66115 132.50394l0 234.91476l31.087921 0l0 -234.91476z" fill-rule="evenodd"></path><path fill="#ffffff" d="m321.73407 160.2258c14.101746 0 23.769989 0.6943817 29.0047 2.0831451c8.119202 2.243393 14.653717 6.8726044 19.603577 13.88765c4.985443 6.979431 7.47818 15.3832245 7.47818 25.211395c0 13.567154 -4.2198486 24.089722 -12.659515 31.567673c-8.439667 7.4779663 -22.70166 11.216949 -42.78595 11.216949l-60.733612 0l0 -83.96681zm-91.18053 -27.721863l0 234.91476l31.087906 0l0 -95.50424l60.25287 0c33.22455 0 56.1933 -6.908203 68.90622 -20.724625c12.712921 -13.85202 19.069397 -30.766464 19.069397 -50.743286c0 -11.644257 -2.3858948 -22.327057 -7.157715 -32.0484c-4.7361755 -9.721359 -11.003632 -17.270538 -18.802307 -22.647537c-7.7986755 -5.412628 -17.466919 -9.080383 -29.0047 -11.003281c-8.226013 -1.4955902 -20.137726 -2.243393 -35.735077 -2.243393z" fill-rule="evenodd"></path><path stroke="#d9d9d9" stroke-width="2.0" stroke-linejoin="round" stroke-linecap="butt" d="m144.66115 132.50394l0 234.91476l31.087921 0l0 -234.91476z" fill-rule="evenodd"></path><path stroke="#d9d9d9" stroke-width="2.0" stroke-linejoin="round" stroke-linecap="butt" d="m321.73407 160.2258c14.101746 0 23.769989 0.6943817 29.0047 2.0831451c8.119202 2.243393 14.653717 6.8726044 19.603577 13.88765c4.985443 6.979431 7.47818 15.3832245 7.47818 25.211395c0 13.567154 -4.2198486 24.089722 -12.659515 31.567673c-8.439667 7.4779663 -22.70166 11.216949 -42.78595 11.216949l-60.733612 0l0 -83.96681zm-91.18053 -27.721863l0 234.91476l31.087906 0l0 -95.50424l60.25287 0c33.22455 0 56.1933 -6.908203 68.90622 -20.724625c12.712921 -13.85202 19.069397 -30.766464 19.069397 -50.743286c0 -11.644257 -2.3858948 -22.327057 -7.157715 -32.0484c-4.7361755 -9.721359 -11.003632 -17.270538 -18.802307 -22.647537c-7.7986755 -5.412628 -17.466919 -9.080383 -29.0047 -11.003281c-8.226013 -1.4955902 -20.137726 -2.243393 -35.735077 -2.243393z" fill-rule="evenodd"></path></g></svg>

