<?xml version="1.0" ?><!DOCTYPE svg  PUBLIC '-//W3C//DTD SVG 1.1//EN'  'http://www.w3.org/Graphics/SVG/1.1/DTD/svg11.dtd'><svg enable-background="new 0 0 512 512" id="Layer_1" version="1.1" viewBox="0 0 512 512" xml:space="preserve" xmlns="http://www.w3.org/2000/svg" xmlns:xlink="http://www.w3.org/1999/xlink"><g id="Layer_1_1_"><path d="M494,256c0,131.4-106.6,238-238,238S18,387.4,18,256S124.6,18,256,18S494,124.6,494,256z" fill="#F06292"/></g><g><g><path d="    M291.9,129.5l-61.9,142C200.5,219.5,237.6,143.4,291.9,129.5z" fill="none" stroke="#FFFFFF" stroke-linecap="round" stroke-linejoin="round" stroke-miterlimit="10" stroke-width="16"/><ellipse cx="235.5" cy="368.2" fill="none" rx="34.1" ry="28.7" stroke="#FFFFFF" stroke-linecap="round" stroke-linejoin="round" stroke-miterlimit="10" stroke-width="16" transform="matrix(-0.3996 0.9167 -0.9167 -0.3996 667.1024 299.4124)"/><line fill="none" stroke="#FFFFFF" stroke-linecap="round" stroke-linejoin="round" stroke-miterlimit="10" stroke-width="16" x1="229.9" x2="249.2" y1="271.5" y2="336.9"/></g><g><path d="    M359.2,171.7L249.7,281.2C308.9,289.6,366.2,227.2,359.2,171.7z" fill="none" stroke="#FFFFFF" stroke-linecap="round" stroke-linejoin="round" stroke-miterlimit="10" stroke-width="16"/><ellipse cx="157.8" cy="311.4" fill="none" rx="34.1" ry="28.7" stroke="#FFFFFF" stroke-linecap="round" stroke-linejoin="round" stroke-miterlimit="10" stroke-width="16" transform="matrix(0.7071 -0.7071 0.7071 0.7071 -173.9882 202.7585)"/><line fill="none" stroke="#FFFFFF" stroke-linecap="round" stroke-linejoin="round" stroke-miterlimit="10" stroke-width="16" x1="249.7" x2="181.9" y1="281.2" y2="287.3"/></g></g></svg>